<svg version="1.1" xmlns="http://www.w3.org/2000/svg" xmlns:xlink="http://www.w3.org/1999/xlink" width="247.91582" height="133.80737" viewBox="0,0,247.91582,133.80737"><g transform="translate(-66.83711,-140.22958)"><g data-paper-data="{&quot;isPaintingLayer&quot;:true}" stroke-linejoin="miter" stroke-miterlimit="10" stroke-dasharray="" stroke-dashoffset="0" style="mix-blend-mode: normal"><path d="M167.24708,206.68139v-53.36278h145.50585v53.36278z" data-paper-data="{&quot;index&quot;:null}" fill="#2eff00" fill-rule="nonzero" stroke="#25cc00" stroke-width="4" stroke-linecap="butt"></path><path d="M312.64286,178.98273h-145.28571" data-paper-data="{&quot;index&quot;:null}" fill="none" fill-rule="nonzero" stroke="#000000" stroke-width="3" stroke-linecap="round"></path><path d="" data-paper-data="{&quot;index&quot;:null}" fill="none" fill-rule="nonzero" stroke="#2eff00" stroke-width="10" stroke-linecap="round"></path><g fill="#000000" fill-rule="evenodd" stroke="#000000" stroke-width="0" stroke-linecap="round"><path d="M253.55703,194.6289h-3.94848c0.0006,0.19542 0.07705,0.38299 0.21325,0.52313c0.06498,0.07053 0.14438,0.13688 0.23825,0.19908c0.03211,0.0213 0.06489,0.04158 0.0983,0.06081c0.1705,0.09956 0.35228,0.17842 0.54146,0.23492c0.18119,0.0537 0.36914,0.08118 0.55812,0.08163c0.18788,0.0006 0.37572,-0.0058 0.56311,-0.01916c0.38318,-0.02888 0.70084,-0.08914 0.95296,-0.18077l0.18326,-0.06663c0.26046,-0.1194 0.47843,-0.18049 0.65391,-0.18327c0.00417,-0.00004 0.00833,-0.00004 0.0125,0c0.276,0 0.52203,0.15078 0.73805,0.45233c0.06667,0.0946 0.12626,0.194 0.17827,0.29739c0.14438,0.29988 0.21658,0.55534 0.21658,0.76638c0,0.96406 -1.12539,1.45804 -3.3762,1.48192c-0.05748,0.00059 -0.11495,0.00086 -0.17243,0.00083c-0.82191,0 -1.55218,-0.14161 -2.19082,-0.42483c-0.27931,-0.12187 -0.5451,-0.27264 -0.79303,-0.44983c-0.26462,-0.18935 -0.49985,-0.4167 -0.69806,-0.67474c-0.69973,-0.89965 -1.04959,-1.90482 -1.04959,-3.0155c-0.00489,-0.51139 0.06499,-1.02074 0.20742,-1.51192c0.20862,-0.70818 0.60634,-1.34607 1.1504,-1.84512c0.79268,-0.734 1.81478,-1.17134 2.89305,-1.23786c0.16544,-0.01333 0.33134,-0.02 0.49731,-0.02c0.45774,-0.00464 0.91408,0.05166 1.35697,0.16743c0.84019,0.21522 1.56888,0.73818 2.04171,1.46527c0.37763,0.57755 0.56645,1.20786 0.56645,1.89094c0,0.68306 -0.16938,1.18843 -0.50813,1.51608c-0.12709,0.12539 -0.27124,0.23224 -0.42817,0.31738c-0.2141,0.1149 -0.45342,0.17474 -0.69639,0.1741zM249.57521,193.11283h2.09919c0.07975,0.00089 0.15936,-0.00694 0.23742,-0.02332c0.2238,-0.04998 0.35263,-0.17965 0.38651,-0.38902c0.00629,-0.03995 0.00937,-0.08034 0.00917,-0.12078c0.00145,-0.10662 -0.01807,-0.21247 -0.05748,-0.31155c-0.05044,-0.12011 -0.13108,-0.22513 -0.23408,-0.30488c-0.09393,-0.07346 -0.2007,-0.12884 -0.31488,-0.16327c-0.09274,-0.02943 -0.19493,-0.04942 -0.30655,-0.05998c-0.07032,-0.00676 -0.14094,-0.0101 -0.21158,-0.01c-0.21613,0.00174 -0.4291,0.05214 -0.6231,0.14745c-0.13218,0.06275 -0.26379,0.14578 -0.39485,0.24906c-0.01909,0.01474 -0.03797,0.02974 -0.05665,0.04498c-0.35541,0.29433 -0.53313,0.6081 -0.53313,0.94131z" data-paper-data="{&quot;index&quot;:null}"></path><path d="M279.50282,197.63248v-0.49981c-0.26401,0.34287 -0.63242,0.59054 -1.04959,0.70556c-0.28378,0.08497 -0.60588,0.12745 -0.96629,0.12745c-0.88966,0 -1.72489,-0.39541 -2.5057,-1.18621c-0.02862,-0.02915 -0.05694,-0.05857 -0.08496,-0.0883c-0.80524,-0.84968 -1.20786,-1.84096 -1.20786,-2.97385c0,-1.13289 0.4054,-2.12696 1.21619,-2.98219c0.2635,-0.28249 0.56028,-0.53198 0.88383,-0.74304c0.52854,-0.34995 1.14793,-0.53759 1.78181,-0.5398c0.22005,-0.00114 0.4394,0.02489 0.65308,0.07747c0.13019,0.03247 0.25728,0.07623 0.37985,0.13078c0.24546,0.1094 0.43039,0.21214 0.55478,0.30821c0.03046,0.0231 0.0594,0.04815 0.08664,0.07497c0.09163,0.09163 0.16772,0.17799 0.22825,0.25906c0.01613,0.02151 0.03169,0.04347 0.04665,0.06581c0.01029,-0.10387 0.03266,-0.20619 0.06664,-0.30489c0.05278,-0.15713 0.1479,-0.29664 0.2749,-0.40318c0.18215,-0.1505 0.46871,-0.23075 0.85967,-0.24074c0.0272,-0.00062 0.05442,-0.00089 0.08163,-0.00083c0.43317,0 0.74971,0.03332 0.94963,0.09997c0.19992,0.06664 0.34153,0.18048 0.42483,0.34153c0.02706,0.05191 0.0518,0.105 0.07414,0.1591c0.03943,0.09718 0.0647,0.18577 0.0758,0.26573c0.01666,0.12218 0.02499,0.31099 0.02499,0.56645v6.89734c0.0055,0.50407 -0.07448,1.00543 -0.23658,1.48276c-0.21907,0.62227 -0.59697,1.17649 -1.09624,1.60771c-0.42835,0.38531 -0.92314,0.68958 -1.46028,0.89799c-0.49168,0.18529 -1.01313,0.27903 -1.53857,0.27656c-0.84411,0 -1.64936,-0.20548 -2.41574,-0.61643c-0.14323,-0.07616 -0.28329,-0.15814 -0.41983,-0.24573c-0.4254,-0.27545 -0.66475,-0.53173 -0.71806,-0.76887c-0.00766,-0.03334 -0.01158,-0.06743 -0.01167,-0.10163c-0.00073,-0.39069 0.14592,-0.76729 0.41068,-1.05459c0.0287,-0.03258 0.05843,-0.06424 0.08913,-0.09496c0.21103,-0.23325 0.37485,-0.39429 0.49148,-0.48315c0.11302,-0.08612 0.25109,-0.13292 0.39318,-0.13329c0.005,-0.00004 0.00999,-0.00004 0.01499,0c0.08105,0.00075 0.16115,0.01744 0.23575,0.04915c0.05553,0.02277 0.1119,0.05358 0.1691,0.09246c0.02684,0.01842 0.05297,0.03788 0.0783,0.05832c0.26646,0.20914 0.56642,0.37165 0.88716,0.48065c0.27268,0.09053 0.5582,0.13638 0.84551,0.13578c0.20457,0.00305 0.40693,-0.04234 0.59061,-0.13245c0.16605,-0.0833 0.31348,-0.20575 0.44233,-0.36736c0.26657,-0.3332 0.39985,-0.73305 0.39985,-1.19954zM276.53733,193.72564c0.00035,0.30259 0.10543,0.59576 0.29739,0.82968c0.03984,0.05058 0.08238,0.09897 0.12745,0.14495c0.26156,0.27569 0.62459,0.43223 1.00461,0.43316c0.00944,0.00008 0.01888,0.00008 0.02832,0c0.19395,0.00237 0.38619,-0.03652 0.56394,-0.11411c0.16931,-0.07679 0.32058,-0.18833 0.444,-0.32738c0.10684,-0.11576 0.19661,-0.2462 0.26657,-0.38735c0.08816,-0.18023 0.13377,-0.37831 0.13328,-0.57894c-0.00121,-0.27678 -0.0825,-0.54728 -0.23408,-0.77886c-0.04515,-0.07124 -0.09497,-0.13942 -0.14911,-0.20408c-0.22613,-0.27401 -0.55802,-0.43904 -0.91298,-0.454c-0.03993,-0.00277 -0.07993,-0.00415 -0.11995,-0.00417c-0.1713,-0.00192 -0.34169,0.02512 -0.50398,0.07997c-0.21084,0.07393 -0.39887,0.20138 -0.54563,0.36986c-0.11429,0.12645 -0.20841,0.26973 -0.27906,0.42484c-0.08006,0.17808 -0.12125,0.37119 -0.12078,0.56645z" data-paper-data="{&quot;index&quot;:null}"></path><path d="M242.46023,192.91321v3.49865c0,0.20658 -0.00555,0.37153 -0.01666,0.49481c-0.00223,0.02672 -0.00501,0.05337 -0.00833,0.07997c-0.00733,0.0537 -0.01932,0.10665 -0.03582,0.15827c-0.02721,0.0872 -0.06803,0.1816 -0.12245,0.28323c-0.06646,0.10941 -0.16307,0.19734 -0.27823,0.25323c-0.16716,0.0872 -0.39262,0.14272 -0.67641,0.1666c-0.11473,0.00923 -0.22978,0.0137 -0.34486,0.01334c-0.47538,0 -0.83134,-0.07497 -1.06793,-0.22491c-0.02832,-0.01784 -0.05558,-0.0373 -0.08164,-0.05832c-0.1777,-0.1555 -0.27767,-0.39429 -0.29988,-0.7164v-0.48315v-5.84775c0,-0.20658 0.00555,-0.37153 0.01667,-0.49481c0.00223,-0.02672 0.00501,-0.05337 0.00833,-0.07997c0.00802,-0.0596 0.02111,-0.11841 0.03915,-0.17577c0.02443,-0.0783 0.05858,-0.16133 0.10247,-0.24906c0.06357,-0.1158 0.16131,-0.20918 0.2799,-0.2674c0.16493,-0.0883 0.38958,-0.14467 0.67391,-0.1691c0.115,-0.0093 0.23033,-0.01375 0.3457,-0.01333c0.13406,-0.00055 0.26806,0.00556 0.40152,0.01833c0.2699,0.02721 0.48121,0.0844 0.63393,0.1716c0.08579,0.04638 0.1592,0.11264 0.21408,0.19326c0.05474,0.0783 0.099,0.16343 0.13162,0.25323c0.03413,0.09515 0.05159,0.19547 0.05165,0.29655c0.01896,-0.02639 0.03869,-0.05224 0.05915,-0.07747c0.04775,-0.05887 0.10635,-0.12495 0.17577,-0.19825c0.00222,-0.0025 0.00444,-0.005 0.00667,-0.0075c0.03171,-0.03261 0.06568,-0.06294 0.10163,-0.0908c0.12385,-0.09773 0.31488,-0.21742 0.57311,-0.35903c0.10536,-0.05815 0.21413,-0.10989 0.32572,-0.15493c0.11218,-0.04498 0.21908,-0.0783 0.32071,-0.09996c0.08598,-0.0184 0.17364,-0.02789 0.26157,-0.02832c0.261,0 0.48038,0.01389 0.65808,0.04165c0.1777,0.02777 0.37208,0.07497 0.58311,0.14161c0.21103,0.06664 0.38596,0.18048 0.52479,0.34153c0.05515,0.06597 0.09804,0.1413 0.12662,0.22242c0.05442,0.14605 0.08164,0.33015 0.08164,0.55228c-0.00114,0.17604 -0.02437,0.35123 -0.06913,0.52146c-0.05275,0.20548 -0.13522,0.4204 -0.2474,0.64475c-0.05494,0.11295 -0.12439,0.21825 -0.20659,0.31322c-0.17655,0.20778 -0.43713,0.32522 -0.70973,0.31988c-0.19992,0 -0.39152,-0.04442 -0.57478,-0.13329c-0.07955,-0.03782 -0.1631,-0.06661 -0.24907,-0.0858c-0.08164,-0.01888 -0.17077,-0.03221 -0.2674,-0.03998c-0.06929,-0.00525 -0.13877,-0.00775 -0.20825,-0.0075c-0.24619,0.00082 -0.48676,0.0735 -0.69223,0.20909c-0.05166,0.03303 -0.10144,0.0689 -0.14911,0.10746c-0.09187,0.07273 -0.1722,0.15894 -0.23825,0.25573c-0.10157,0.15079 -0.155,0.32884 -0.15328,0.51063z" data-paper-data="{&quot;index&quot;:null}"></path><path d="M270.25469,196.77844v-5.84775c0,-0.20658 0.00555,-0.37153 0.01667,-0.49481c0.00223,-0.02672 0.00501,-0.05337 0.00833,-0.07997c0.00757,-0.05522 0.01927,-0.10979 0.03499,-0.16327c0.02443,-0.08607 0.05998,-0.17883 0.10663,-0.27823c0.12718,-0.23546 0.439,-0.37485 0.93548,-0.41817c0.12107,-0.01026 0.24252,-0.01526 0.36403,-0.015c0.12379,-0.00053 0.24751,0.0053 0.3707,0.0175c0.26767,0.02777 0.48175,0.0883 0.64225,0.1816c0.0424,0.02442 0.08256,0.05259 0.11995,0.08413c0.17437,0.14383 0.27294,0.35847 0.29571,0.64391c0.00194,0.02412 0.00332,0.04829 0.00417,0.07247c0.00309,0.03077 0.00558,0.0616 0.0075,0.09247c0.00444,0.07053 0.00722,0.1541 0.00833,0.25073c0.0006,0.04665 0.00087,0.0933 0.00083,0.13995v5.83108c0,0.20658 -0.00555,0.37153 -0.01666,0.49481c-0.00223,0.02672 -0.00501,0.05337 -0.00833,0.07997c-0.00733,0.0537 -0.01933,0.10665 -0.03582,0.15827c-0.02721,0.0872 -0.06803,0.1816 -0.12245,0.28323c-0.05772,0.10825 -0.14767,0.19587 -0.2574,0.25073c-0.15717,0.08607 -0.37347,0.14161 -0.64892,0.1666c-0.1252,0.01098 -0.25083,0.01626 -0.37651,0.01583c-0.14024,0.00061 -0.2804,-0.00662 -0.41983,-0.02166c-0.28323,-0.03165 -0.50175,-0.09941 -0.65558,-0.20325c-0.08713,-0.05613 -0.15852,-0.13353 -0.20742,-0.22491c-0.02517,-0.05379 -0.04822,-0.10852 -0.06913,-0.1641c-0.03722,-0.0994 -0.06137,-0.1891 -0.07247,-0.26906c-0.01666,-0.12218 -0.02499,-0.31654 -0.02499,-0.58311zM272.74121,188.10096c0.1083,-0.06028 0.19662,-0.1509 0.25407,-0.26073c0.01795,-0.03449 0.03489,-0.06948 0.05081,-0.10496c0.02555,-0.0572 0.04638,-0.1119 0.06248,-0.1641c0.01686,-0.05356 0.02912,-0.10846 0.03665,-0.1641c0.00332,-0.0266 0.0061,-0.05326 0.00833,-0.07997c0.0111,-0.12328 0.01666,-0.28821 0.01666,-0.49481c0.00017,-0.05415 -0.00011,-0.1083 -0.00083,-0.16244c-0.00223,-0.11218 -0.0061,-0.20853 -0.01167,-0.28905c-0.00301,-0.0412 -0.00717,-0.08232 -0.0125,-0.12328c-0.00521,-0.03879 -0.013,-0.07719 -0.02332,-0.11495c-0.01388,-0.05109 -0.03248,-0.10496 -0.05581,-0.1616c-0.02378,-0.05619 -0.05019,-0.11122 -0.07914,-0.16493c-0.04844,-0.09696 -0.12284,-0.17857 -0.21491,-0.23575c-0.1505,-0.0983 -0.36347,-0.16271 -0.63892,-0.19326c-0.13696,-0.01449 -0.27461,-0.02144 -0.41234,-0.02083c-0.11537,-0.00043 -0.2307,0.00402 -0.3457,0.01333c-0.28433,0.02443 -0.50897,0.0808 -0.67391,0.1691c-0.11858,0.05822 -0.21631,0.1516 -0.27989,0.2674c-0.04388,0.08774 -0.07803,0.17076 -0.10247,0.24906c-0.01804,0.05736 -0.03113,0.11617 -0.03915,0.17577c-0.00332,0.0266 -0.0061,0.05326 -0.00833,0.07997c-0.0111,0.12328 -0.01666,0.28822 -0.01666,0.49481c0.00011,0.05415 0.00066,0.1083 0.00166,0.16243c0.00167,0.11218 0.00555,0.20853 0.01167,0.28905c0.00274,0.04119 0.00662,0.08231 0.01167,0.12328c0.01055,0.08164 0.03498,0.17133 0.0733,0.26906c0.02287,0.05863 0.04844,0.11617 0.07663,0.17243c0.05284,0.10575 0.13422,0.19462 0.23491,0.25656c0.06459,0.03979 0.13402,0.07115 0.20658,0.0933c0.14495,0.04609 0.32293,0.07609 0.53396,0.08997c0.10232,0.0068 0.20484,0.01013 0.30738,0.01c0.22992,0 0.42956,-0.01443 0.59893,-0.04332c0.08201,-0.01329 0.16301,-0.03222 0.2424,-0.05665c0.06523,-0.02004 0.12809,-0.04715 0.18743,-0.0808z" data-paper-data="{&quot;index&quot;:null}"></path><path d="M255.32682,196.70421c0,-0.27933 0.19742,-0.69889 0.59226,-1.25867c0.01352,-0.01921 0.02714,-0.03837 0.04082,-0.05748c0.09055,-0.14106 0.23629,-0.2375 0.40151,-0.26573c0.06257,-0.01209 0.12619,-0.01796 0.18993,-0.0175c0.09052,0.00121 0.18056,0.01323 0.26823,0.03582c0.23213,0.0572 0.51203,0.18132 0.83968,0.37236c0.33765,0.1966 0.65169,0.3221 0.94214,0.37652c0.1068,0.02055 0.21529,0.03114 0.32405,0.03165c0.10646,0.00041 0.21289,-0.00348 0.31905,-0.01166c0.3432,-0.02832 0.55978,-0.10607 0.64975,-0.23325c0.03177,-0.04534 0.0484,-0.09958 0.04748,-0.15494c0,-0.17549 -0.25656,-0.31238 -0.7697,-0.41068c-0.11496,-0.02185 -0.23052,-0.04046 -0.34653,-0.05581c-0.49719,-0.07367 -0.98081,-0.22018 -1.43528,-0.43483c-0.22226,-0.10356 -0.43837,-0.21981 -0.64725,-0.3482c-0.3221,-0.19992 -0.58866,-0.51369 -0.79969,-0.94131c-0.12195,-0.25158 -0.20777,-0.51911 -0.2549,-0.7947c-0.04207,-0.24094 -0.06271,-0.48514 -0.06165,-0.72971c0,-1.75489 1.20509,-2.63232 3.61528,-2.63232c0.53618,0.0029 1.06896,0.08514 1.58106,0.24407c0.29054,0.08869 0.57493,0.19638 0.85135,0.32238c0.19326,0.0883 0.33848,0.1877 0.43566,0.29822c0.09366,0.09984 0.1463,0.2313 0.14745,0.3682c0,0.26657 -0.12218,0.59421 -0.36653,0.98296c-0.19493,0.31043 -0.39374,0.49703 -0.59643,0.55978c-0.04963,0.01543 -0.1013,0.0233 -0.15328,0.02332c-0.03783,-0.00065 -0.07551,-0.00511 -0.11246,-0.01333c-0.1194,-0.02498 -0.28517,-0.08413 -0.49731,-0.17743c-0.04407,-0.01929 -0.08793,-0.03901 -0.13161,-0.05915c-0.36097,-0.1666 -0.75248,-0.2499 -1.17455,-0.2499c-0.10312,-0.00035 -0.20621,0.00327 -0.30905,0.01083c-0.32543,0.02498 -0.53285,0.09413 -0.62226,0.20742c-0.03395,0.0419 -0.05222,0.09434 -0.05165,0.14828c0,0.3332 0.37764,0.54978 1.1329,0.64975c0.73305,0.07775 1.44388,0.28878 2.13251,0.6331c0.3221,0.1555 0.59145,0.42483 0.80803,0.80802c0.19493,0.34431 0.30211,0.76693 0.32154,1.26784c0.00225,0.05773 0.00337,0.1155 0.00333,0.17327c0.00118,0.2216 -0.01665,0.44287 -0.05331,0.66141c-0.04609,0.26379 -0.12107,0.50425 -0.22491,0.72139c-0.01488,0.03087 -0.03044,0.06142 -0.04665,0.09163c-0.13896,0.26645 -0.33187,0.50107 -0.56645,0.6889c-0.10647,0.08393 -0.22085,0.15731 -0.34153,0.21908c-0.71083,0.34431 -1.60216,0.51647 -2.67397,0.51647c-0.9427,-0.00345 -1.86928,-0.24469 -2.69397,-0.7014c-0.13471,-0.07275 -0.26696,-0.14998 -0.39651,-0.23158c-0.16948,-0.10482 -0.28201,-0.28111 -0.30571,-0.47898c-0.00749,-0.05102 -0.0111,-0.10253 -0.01083,-0.1541z" data-paper-data="{&quot;index&quot;:null}"></path><path d="M268.24224,192.39771l-1.08292,-0.06664v2.29912c0,0.29988 0.04721,0.51647 0.14161,0.64975c0.06997,0.09885 0.18604,0.16105 0.3482,0.1866c0.0612,0.00923 0.12304,0.01369 0.18493,0.01333c0.21548,0 0.38901,0.00555 0.52063,0.01666c0.02643,0.00232 0.05281,0.00511 0.07914,0.00833c0.12939,0.01555 0.26573,0.0622 0.40901,0.13995c0.0109,0.00599 0.02172,0.0121 0.03248,0.01833c0.09923,0.05901 0.17891,0.14592 0.22908,0.2499c0.0772,0.14883 0.12551,0.34903 0.14495,0.60059c0.0064,0.08843 0.00946,0.17707 0.00916,0.26573c0.00062,0.14026 -0.00689,0.28044 -0.02249,0.41983c-0.03388,0.28933 -0.10635,0.51119 -0.21741,0.66558c-0.05821,0.08338 -0.13602,0.15118 -0.22658,0.19742c-0.05828,0.02736 -0.11777,0.05211 -0.17827,0.07413c-0.09552,0.03443 -0.18327,0.05692 -0.26323,0.06747c-0.10607,0.01388 -0.25268,0.02193 -0.43983,0.02415c-0.03943,0.00053 -0.07886,0.00079 -0.11828,0.00083c-0.76914,0 -1.41529,-0.11578 -1.93842,-0.34736c-0.25186,-0.10955 -0.48579,-0.25643 -0.6939,-0.43566c-0.59976,-0.52203 -0.89965,-1.40502 -0.89965,-2.64898v-2.46572c-0.13745,0.02153 -0.27591,0.03598 -0.41485,0.04332c-0.08933,0.00463 -0.17877,0.00686 -0.26823,0.00667c-0.21548,0.00421 -0.42259,-0.08331 -0.56978,-0.24074c-0.0132,-0.01378 -0.02598,-0.02793 -0.03832,-0.04248c-0.05943,-0.07199 -0.10592,-0.15372 -0.13745,-0.24157c-0.05832,-0.15494 -0.09219,-0.3507 -0.10163,-0.58728c-0.00172,-0.04579 -0.00256,-0.09162 -0.0025,-0.13745c-0.0002,-0.10609 0.00147,-0.21218 0.005,-0.31821c0.01055,-0.29433 0.03665,-0.51869 0.0783,-0.67308c0.03498,-0.12939 0.07886,-0.23575 0.13162,-0.31905c0.02799,-0.04536 0.0622,-0.08659 0.10163,-0.12245c0.13291,-0.10679 0.29195,-0.1761 0.46065,-0.20075c0.06805,-0.01073 0.13685,-0.01602 0.20575,-0.01583l0.54978,0.06664v-1.716c0,-0.25546 0.00833,-0.44427 0.02498,-0.56645c0.00815,-0.05689 0.0224,-0.11276 0.04249,-0.1666c0.01888,-0.05109 0.04305,-0.10385 0.07247,-0.15827c0.01375,-0.02538 0.02819,-0.05037 0.04332,-0.07497c0.05548,-0.09987 0.13963,-0.18083 0.24157,-0.23241c0.15105,-0.0833 0.35986,-0.13828 0.62643,-0.16493c0.13788,-0.01324 0.27633,-0.01963 0.41485,-0.01916c0.75526,0 1.2051,0.20548 1.34948,0.61643c0.01721,0.05708 0.03056,0.11524 0.03998,0.1741c0.02166,0.12718 0.03526,0.28489 0.04082,0.47315c0.00181,0.06746 0.00264,0.13494 0.0025,0.20242v1.6327c0.3743,-0.03388 0.67863,-0.05498 0.91298,-0.06331c0.06495,-0.00221 0.12994,-0.00331 0.19493,-0.00333c0.20437,0 0.36792,0.00555 0.49065,0.01666c0.02532,0.00229 0.05059,0.00507 0.0758,0.00833c0.0537,0.00733 0.10665,0.01932 0.15827,0.03582c0.0872,0.02777 0.1816,0.06858 0.28323,0.12245c0.10825,0.05772 0.19587,0.14768 0.25073,0.2574c0.08607,0.15717 0.14161,0.37346 0.1666,0.64891c0.01098,0.1252 0.01626,0.25084 0.01583,0.37652c0.00061,0.14024 -0.00662,0.2804 -0.02166,0.41983c-0.03165,0.28323 -0.09913,0.50174 -0.20242,0.65558c-0.05636,0.08723 -0.13407,0.15863 -0.22575,0.20742c-0.05828,0.02736 -0.11777,0.05211 -0.17827,0.07414c-0.09552,0.03443 -0.18326,0.05692 -0.26323,0.06747c-0.04069,0.0053 -0.08153,0.00947 -0.12245,0.0125c-0.08108,0.00555 -0.1777,0.00944 -0.28988,0.01167c-0.05415,0.00072 -0.1083,0.001 -0.16243,0.00083z" data-paper-data="{&quot;index&quot;:null}"></path><path d="M234.36238,193.92386h-2.08253v1.88261c0,0.20658 -0.00555,0.37153 -0.01667,0.49481c-0.00223,0.02671 -0.00501,0.05337 -0.00833,0.07997c-0.00733,0.0537 -0.01932,0.10665 -0.03582,0.15827c-0.02721,0.0872 -0.06802,0.1816 -0.12245,0.28323c-0.06336,0.11567 -0.16079,0.20904 -0.27906,0.2674c-0.1655,0.0883 -0.3904,0.14467 -0.67474,0.1691c-0.11498,0.0093 -0.23033,0.01375 -0.3457,0.01333c-0.57423,0 -0.97268,-0.11191 -1.19538,-0.3357c-0.0785,-0.07862 -0.13704,-0.17486 -0.17077,-0.28073c-0.05553,-0.15715 -0.08803,-0.38318 -0.09746,-0.67808c-0.00182,-0.06274 -0.00266,-0.1255 -0.0025,-0.18826v-9.24644c0,-0.20658 0.00555,-0.37153 0.01667,-0.49481c0.00223,-0.02671 0.00501,-0.05337 0.00833,-0.07997c0.00733,-0.0537 0.01933,-0.10665 0.03582,-0.15827c0.02778,-0.0872 0.06859,-0.1816 0.12245,-0.28323c0.06336,-0.11567 0.16079,-0.20904 0.27906,-0.2674c0.1655,-0.0883 0.3904,-0.14467 0.67474,-0.1691c0.11498,-0.0093 0.23033,-0.01375 0.3457,-0.01333h3.5653c0.67337,0.0041 1.336,0.16919 1.93259,0.48148c0.32299,0.16595 0.62976,0.36172 0.91631,0.58478c0.45538,0.34431 0.82746,0.81081 1.11624,1.39946c0.23809,0.49083 0.38003,1.02269 0.41817,1.56689c0.01016,0.13276 0.01516,0.26586 0.015,0.39901c0.00259,0.40923 -0.04865,0.81701 -0.15245,1.21286c-0.06872,0.2569 -0.16275,0.50637 -0.28073,0.74471c-0.14431,0.29557 -0.32237,0.57343 -0.53063,0.82802c-0.17261,0.20985 -0.36916,0.39883 -0.58561,0.56311c-0.36384,0.28486 -0.76176,0.52326 -1.18454,0.70973c-0.52974,0.23352 -1.10209,0.35491 -1.68103,0.35653zM234.36238,188.02616h-2.08253v2.94887h2.09919c0.3332,0 0.66087,-0.12217 0.98296,-0.36653c0.237,-0.1802 0.39734,-0.44317 0.44899,-0.73638c0.02341,-0.11964 0.03485,-0.24129 0.03415,-0.3632c0.00145,-0.14902 -0.0159,-0.29764 -0.05165,-0.44233c-0.06376,-0.26456 -0.21599,-0.4994 -0.4315,-0.66558c-0.32209,-0.2499 -0.6553,-0.37485 -0.99962,-0.37485z" data-paper-data="{&quot;index&quot;:null}"></path><path d="M290.12854,195.27537h-3.94848c0.0006,0.19542 0.07705,0.38299 0.21325,0.52313c0.06498,0.07053 0.14439,0.13689 0.23825,0.19909c0.03211,0.0213 0.06489,0.04158 0.0983,0.06081c0.1705,0.09956 0.35227,0.17842 0.54146,0.23491c0.18119,0.0537 0.36914,0.08119 0.55812,0.08164c0.18788,0.0006 0.37572,-0.0058 0.56311,-0.01917c0.38318,-0.02888 0.70084,-0.08913 0.95296,-0.18076l0.18327,-0.06664c0.26046,-0.1194 0.47843,-0.18048 0.65391,-0.18326c0.00417,-0.00004 0.00833,-0.00004 0.0125,0c0.276,0 0.52203,0.15078 0.73805,0.45233c0.06667,0.0946 0.12626,0.19399 0.17827,0.29738c0.14438,0.29988 0.21658,0.55534 0.21658,0.76638c0,0.96406 -1.1254,1.45805 -3.3762,1.48193c-0.05748,0.00059 -0.11495,0.00085 -0.17243,0.00083c-0.82191,0 -1.55218,-0.14161 -2.19082,-0.42483c-0.27931,-0.12187 -0.5451,-0.27263 -0.79303,-0.44983c-0.26462,-0.18935 -0.49985,-0.4167 -0.69806,-0.67474c-0.69973,-0.89965 -1.04959,-1.90482 -1.04959,-3.0155c-0.00489,-0.51139 0.06499,-1.02073 0.20742,-1.51192c0.20862,-0.70818 0.60634,-1.34608 1.15039,-1.84513c0.79268,-0.734 1.81478,-1.17134 2.89305,-1.23786c0.16544,-0.01333 0.33134,-0.02 0.49731,-0.02c0.45774,-0.00464 0.91408,0.05166 1.35698,0.16743c0.84019,0.21522 1.56887,0.73818 2.04171,1.46527c0.37763,0.57755 0.56645,1.20786 0.56645,1.89094c0,0.68306 -0.16938,1.18843 -0.50813,1.51608c-0.12709,0.12539 -0.27124,0.23224 -0.42816,0.31738c-0.2141,0.1149 -0.45342,0.17474 -0.6964,0.1741zM286.14675,193.75931h2.09919c0.07975,0.00089 0.15936,-0.00694 0.23741,-0.02332c0.2238,-0.04998 0.35264,-0.17965 0.38652,-0.38902c0.00629,-0.03995 0.00937,-0.08034 0.00916,-0.12078c0.00145,-0.10662 -0.01807,-0.21247 -0.05748,-0.31155c-0.05044,-0.12011 -0.13107,-0.22513 -0.23408,-0.30488c-0.09393,-0.07346 -0.2007,-0.12884 -0.31488,-0.16327c-0.09274,-0.02943 -0.19493,-0.04942 -0.30655,-0.05998c-0.07032,-0.00676 -0.14094,-0.0101 -0.21158,-0.01c-0.21613,0.00174 -0.4291,0.05213 -0.6231,0.14745c-0.13218,0.06275 -0.26379,0.14578 -0.39485,0.24907c-0.01909,0.01474 -0.03797,0.02974 -0.05665,0.04498c-0.35541,0.29433 -0.53313,0.60809 -0.53313,0.94131z" data-paper-data="{&quot;index&quot;:null}"></path></g><path d="M235.35175,206.9678l-163.51464,62.06915" data-paper-data="{&quot;index&quot;:null}" fill="none" fill-rule="nonzero" stroke="#2eff00" stroke-width="10" stroke-linecap="round"></path><text transform="translate(170.23375,168.52917) scale(0.29059,0.29059)" font-size="40" xml:space="preserve" fill="#000000" fill-rule="nonzero" stroke="#000000" stroke-width="2" stroke-linecap="butt" stroke-linejoin="miter" stroke-miterlimit="10" stroke-dasharray="" stroke-dashoffset="0" font-family="Sans Serif" font-weight="normal" text-anchor="start" style="mix-blend-mode: normal"><tspan x="0" dy="0">x3 Prestige, but /2 points</tspan></text><text transform="translate(166.07375,149.2032) scale(0.20629,0.20629)" font-size="40" xml:space="preserve" fill="#25cc00" fill-rule="nonzero" stroke="none" stroke-width="1" stroke-linecap="butt" stroke-linejoin="miter" stroke-miterlimit="10" stroke-dasharray="" stroke-dashoffset="0" font-family="Sans Serif" font-weight="normal" text-anchor="start" style="mix-blend-mode: normal"><tspan x="0" dy="0">Side effects -- pr17</tspan></text><path d="M219.65505,198.26556h-4.7168c-0.83695,0 -1.32716,-0.22718 -1.47064,-0.68152c-0.05979,-0.16918 -0.09476,-0.4125 -0.10492,-0.72994c-0.00196,-0.06753 -0.00286,-0.1351 -0.00269,-0.20266v-9.95371c0,-0.28695 0.00897,-0.49619 0.0269,-0.62771c0.01793,-0.13152 0.07472,-0.28695 0.17038,-0.4663c0.06821,-0.12452 0.1731,-0.22502 0.3004,-0.28785c0.17815,-0.09505 0.42027,-0.15573 0.72635,-0.18204c0.12379,-0.01002 0.24795,-0.01481 0.37214,-0.01435h4.51952c0.53494,-0.00647 1.06546,0.09732 1.55852,0.30489c0.45321,0.19815 0.86233,0.48472 1.20341,0.84293c0.74565,0.71912 1.16652,1.71076 1.16575,2.74668c0.0001,0.01704 0.0001,0.03408 0,0.05111c0,0.78912 -0.22718,1.51249 -0.68152,2.17009c0.38077,0.44252 0.67137,0.9552 0.85548,1.5092c0.13597,0.42211 0.20436,0.86307 0.20266,1.30654c-0.02391,1.19565 -0.43343,2.19699 -1.22852,3.00405c-0.79509,0.80706 -1.76058,1.21059 -2.89644,1.21059zM219.04528,188.29392h-2.51084v6.79722h2.94128c0.75325,0 1.12988,-0.40651 1.12988,-1.21955c0,-0.28695 -0.03287,-0.51412 -0.09864,-0.68152c-0.03088,-0.08132 -0.07715,-0.15591 -0.1363,-0.2197c-0.05559,-0.0585 -0.12197,-0.1057 -0.19549,-0.13899c-0.23913,-0.09565 -0.57391,-0.14348 -1.00434,-0.14348c-0.11874,0.00049 -0.23737,-0.00699 -0.35511,-0.02242c-0.25766,-0.03468 -0.46211,-0.11089 -0.61336,-0.22867c-0.0822,-0.06651 -0.14738,-0.15166 -0.19011,-0.24839c-0.08847,-0.18891 -0.13272,-0.44986 -0.13272,-0.78285c-0.00061,-0.11234 0.00539,-0.22463 0.01793,-0.33627c0.0287,-0.24032 0.09057,-0.42744 0.18562,-0.56135c0.03565,-0.05084 0.07889,-0.09591 0.12823,-0.13361c0.1949,-0.14706 0.50307,-0.22956 0.92453,-0.2475c0.05945,-0.00244 0.11894,-0.00364 0.17845,-0.00359c0.36347,0 0.61636,-0.07264 0.75863,-0.21791c0.04476,-0.0452 0.07958,-0.09927 0.10223,-0.15872c0.02749,-0.10043 0.04453,-0.24988 0.05111,-0.44837c0.00196,-0.06574 0.00286,-0.13151 0.00269,-0.19728c0.00074,-0.07774 -0.00708,-0.15532 -0.02331,-0.23136c-0.04005,-0.17815 -0.13092,-0.31027 -0.27261,-0.39635c-0.19728,-0.11956 -0.4932,-0.17935 -0.88776,-0.17935z" fill="#000000" fill-rule="evenodd" stroke="#000000" stroke-width="0" stroke-linecap="round"></path><path d="M209.1967,185.49292l0.05292,-0.03528c0.10397,-0.10581 0.22071,-0.19826 0.34753,-0.27521c0.19551,-0.11947 0.42008,-0.18292 0.6492,-0.18347c0.35871,0 0.63804,0.0294 0.83796,0.08821c0.05861,0.01695 0.11657,0.03608 0.17377,0.05733c0.11702,0.0441 0.212,0.09262 0.28491,0.14554c0.05059,0.03728 0.09443,0.08291 0.12966,0.13496c0.04587,0.06645 0.08497,0.14789 0.11732,0.24433c0.01817,0.06404 0.03231,0.12914 0.04234,0.19494c0.03058,0.18876 0.04587,0.43544 0.04587,0.74006v9.82624c0,0.21875 -0.00587,0.3934 -0.01764,0.52395c-0.00236,0.02828 -0.0053,0.05651 -0.00882,0.08468c-0.00776,0.05686 -0.02046,0.11293 -0.03793,0.16759c-0.02881,0.09233 -0.07203,0.19229 -0.12966,0.2999c-0.06709,0.12248 -0.17027,0.22134 -0.29549,0.28314c-0.17524,0.0935 -0.4134,0.15318 -0.71448,0.17906c-0.12177,0.00985 -0.24389,0.01456 -0.36606,0.01411c-0.14642,0.00062 -0.29277,-0.00675 -0.43839,-0.02205c-0.47573,-0.05234 -0.78239,-0.19787 -0.92,-0.43662c-0.0348,-0.06485 -0.06572,-0.13172 -0.09262,-0.20023c-0.02704,-0.0688 -0.04734,-0.13525 -0.06086,-0.19935c-0.00596,-0.0283 -0.01067,-0.05685 -0.01411,-0.08556c-0.01352,-0.11408 -0.02175,-0.26873 -0.0247,-0.46397c-0.00106,-0.05997 -0.00165,-0.11995 -0.00176,-0.17994v-6.29797l-0.22934,0.2117c-0.12165,0.09295 -0.24828,0.17923 -0.37929,0.25845c-0.27344,0.16288 -0.51983,0.25668 -0.73917,0.28138c-0.03864,0.00455 -0.07752,0.00691 -0.11643,0.00706c-0.15224,-0.00206 -0.30194,-0.03919 -0.43751,-0.10849c-0.20464,-0.10056 -0.41457,-0.2702 -0.6298,-0.50895c-0.09152,-0.10096 -0.17694,-0.20729 -0.2558,-0.31843c-0.19993,-0.28344 -0.2999,-0.54188 -0.2999,-0.77534c0.00211,-0.12825 0.03252,-0.25446 0.08909,-0.36959c0.09938,-0.21229 0.28138,-0.43604 0.546,-0.67125z" fill="#000000" fill-rule="evenodd" stroke="#000000" stroke-width="0" stroke-linecap="round"></path></g></g></svg>