<svg width="480px" height="360px" xmlns="http://www.w3.org/2000/svg"><rect x="216" y="124" width="80.5" height="80.5" fill-opacity="0"></rect><path fill="#F00" d="M243.662 187.828L243.662 187.828Q242.976 187.828 242.358 187.691Q241.740 187.554 241.328 186.981Q240.916 186.409 240.916 185.127L240.916 185.127Q240.916 183.800 241.305 183.227Q241.694 182.655 242.312 182.518Q242.930 182.381 243.617 182.381L243.617 182.381Q244.761 182.381 245.768 181.167Q246.775 179.954 247.508 177.780Q248.240 175.605 248.652 172.652Q249.064 169.700 249.064 166.220L249.064 166.220Q249.064 160.727 248.217 157.156Q247.371 153.585 246.134 151.823Q244.898 150.060 243.662 150.060L243.662 150.060L243.433 150.060Q242.793 150.060 242.220 149.923Q241.648 149.785 241.282 149.213Q240.916 148.641 240.916 147.359L240.916 147.359Q240.916 146.077 241.305 145.505Q241.694 144.933 242.312 144.773Q242.930 144.612 243.617 144.612L243.617 144.612Q246.043 144.612 247.943 145.894Q249.843 147.176 251.216 149.396Q252.589 151.617 253.482 154.409Q254.375 157.202 254.810 160.269Q255.245 163.336 255.245 166.312L255.245 166.312Q255.245 169.288 254.787 172.378Q254.329 175.468 253.436 178.215Q252.544 180.961 251.147 183.136Q249.751 185.310 247.897 186.569Q246.043 187.828 243.662 187.828Z"></path></svg>