<svg width="480px" height="360px" xmlns="http://www.w3.org/2000/svg"><rect x="216" y="124" width="80.5" height="80.5" fill-opacity="0"></rect><path fill="#F00" d="M253.871 180L253.871 180Q251.628 180 249.911 179.107Q248.195 178.215 247.073 176.681Q245.951 175.147 245.379 173.133Q244.807 171.119 244.853 168.784L244.853 168.784Q244.853 166.541 245.448 164.504Q246.043 162.466 247.165 160.887Q248.286 159.308 249.957 158.415Q251.628 157.522 253.871 157.522L253.871 157.522Q255.886 157.522 257.785 158.438Q259.685 159.353 261.150 160.933Q262.615 162.512 263.462 164.572Q264.309 166.632 264.309 168.921L264.309 168.921Q264.309 171.210 263.462 173.247Q262.615 175.285 261.150 176.795Q259.685 178.306 257.808 179.153Q255.931 180 253.871 180ZM245.036 189.888L245.036 189.888Q243.388 189.888 242.678 189.408Q241.969 188.927 241.808 188.172Q241.648 187.416 241.648 186.546L241.648 186.546L241.648 160.956Q241.648 160.040 241.785 159.285Q241.923 158.529 242.632 158.026Q243.342 157.522 244.990 157.522L244.990 157.522Q246.409 157.522 247.256 157.934Q248.103 158.346 248.469 159.216L248.469 159.216L248.469 186.501Q248.515 187.371 248.332 188.149Q248.149 188.927 247.439 189.408Q246.730 189.888 245.036 189.888ZM252.910 173.545L252.910 173.545Q254.192 173.545 255.199 172.927Q256.206 172.309 256.824 171.256Q257.442 170.203 257.442 168.921L257.442 168.921Q257.442 167.594 256.847 166.564Q256.252 165.534 255.245 164.938Q254.237 164.343 252.956 164.343L252.956 164.343Q251.720 164.343 250.690 164.961Q249.660 165.579 249.087 166.609Q248.515 167.639 248.515 168.921L248.515 168.921Q248.515 170.203 249.110 171.256Q249.705 172.309 250.712 172.927Q251.720 173.545 252.910 173.545Z"></path></svg>